<svg width="74" height="49" viewBox="0 0 74 49" fill="none" xmlns="http://www.w3.org/2000/svg">
<g clip-path="url(#clip0_174_52)">
<path d="M9.36568 35L3 1.27132H8.07265L11.902 27.3639L15.2838 1.27132H20.2072L14.5378 35H9.36568Z" fill="#B927D6"/>
<path d="M33.8006 11.4379H26.5977V18.9074H31.7906V22.7254H26.5977V31.182H33.8006V35H22.4078V7.61982H33.8006V11.4379Z" fill="white"/>
<path d="M40.1248 35H35.9349V7.61982H41.7991C46.6563 7.61982 48.7948 10.0812 48.7948 15.5443C48.7948 19.0739 48.0405 20.9626 45.9891 22.4411L49.2133 35.004H44.7748L42.1348 23.55H40.1248V35.004V35ZM41.4676 19.7279C42.8932 19.7279 43.4362 19.5207 43.8962 18.8668C44.3148 18.2088 44.609 16.9781 44.609 15.5808C44.609 14.1024 44.3147 12.7904 43.7718 12.173C43.3533 11.6003 42.8104 11.4338 41.4676 11.4338H40.129V19.7279H41.4676Z" fill="white"/>
<path d="M55.7779 28.9643L54.8164 35H50.668L55.235 7.61982H60.6806L65.5378 35H61.2236L60.2621 28.9643H55.7821H55.7779ZM57.9537 14.2283L56.3623 25.1462H59.628L57.9537 14.2283Z" fill="white"/>
<path d="M68.9901 1.22258H15.2838V4.87002H68.9901V1.22258Z" fill="#B927D6"/>
<path d="M64.9535 6.32007L71.0001 4.00081L69.4045 0" fill="#B927D6"/>
</g>
<path d="M0.450273 46.5V42.18H2.11827C2.16027 42.18 2.20727 42.182 2.25927 42.186C2.31327 42.188 2.36727 42.194 2.42127 42.204C2.64727 42.238 2.83827 42.317 2.99427 42.441C3.15227 42.563 3.27127 42.717 3.35127 42.903C3.43327 43.089 3.47427 43.295 3.47427 43.521C3.47427 43.745 3.43327 43.95 3.35127 44.136C3.26927 44.322 3.14927 44.477 2.99127 44.601C2.83527 44.723 2.64527 44.801 2.42127 44.835C2.36727 44.843 2.31327 44.849 2.25927 44.853C2.20727 44.857 2.16027 44.859 2.11827 44.859H0.891273V46.5H0.450273ZM0.891273 44.439H2.10627C2.14227 44.439 2.18427 44.437 2.23227 44.433C2.28027 44.429 2.32727 44.422 2.37327 44.412C2.52127 44.38 2.64227 44.319 2.73627 44.229C2.83227 44.139 2.90327 44.032 2.94927 43.908C2.99727 43.784 3.02127 43.655 3.02127 43.521C3.02127 43.387 2.99727 43.258 2.94927 43.134C2.90327 43.008 2.83227 42.9 2.73627 42.81C2.64227 42.72 2.52127 42.659 2.37327 42.627C2.32727 42.617 2.28027 42.611 2.23227 42.609C2.18427 42.605 2.14227 42.603 2.10627 42.603H0.891273V44.439ZM5.40679 46.59C5.08479 46.59 4.80979 46.517 4.58179 46.371C4.35379 46.225 4.17879 46.023 4.05679 45.765C3.93479 45.507 3.87379 45.211 3.87379 44.877C3.87379 44.537 3.93579 44.239 4.05979 43.983C4.18379 43.727 4.35979 43.528 4.58779 43.386C4.81779 43.242 5.09079 43.17 5.40679 43.17C5.73079 43.17 6.00679 43.243 6.23479 43.389C6.46479 43.533 6.63979 43.734 6.75979 43.992C6.88179 44.248 6.94279 44.543 6.94279 44.877C6.94279 45.217 6.88179 45.516 6.75979 45.774C6.63779 46.03 6.46179 46.23 6.23179 46.374C6.00179 46.518 5.72679 46.59 5.40679 46.59ZM5.40679 46.167C5.76679 46.167 6.03479 46.048 6.21079 45.81C6.38679 45.57 6.47479 45.259 6.47479 44.877C6.47479 44.485 6.38579 44.173 6.20779 43.941C6.03179 43.709 5.76479 43.593 5.40679 43.593C5.16479 43.593 4.96479 43.648 4.80679 43.758C4.65079 43.866 4.53379 44.017 4.45579 44.211C4.37979 44.403 4.34179 44.625 4.34179 44.877C4.34179 45.267 4.43179 45.58 4.61179 45.816C4.79179 46.05 5.05679 46.167 5.40679 46.167ZM8.17738 46.5L7.18738 43.257L7.62838 43.26L8.39638 45.777L9.16738 43.26H9.56938L10.3404 45.777L11.1144 43.26H11.5524L10.5624 46.5H10.1784L9.36838 43.92L8.56138 46.5H8.17738ZM13.3467 46.59C13.0307 46.59 12.7567 46.52 12.5247 46.38C12.2947 46.24 12.1157 46.043 11.9877 45.789C11.8597 45.535 11.7957 45.237 11.7957 44.895C11.7957 44.541 11.8587 44.235 11.9847 43.977C12.1107 43.719 12.2877 43.52 12.5157 43.38C12.7457 43.24 13.0167 43.17 13.3287 43.17C13.6487 43.17 13.9217 43.244 14.1477 43.392C14.3737 43.538 14.5447 43.748 14.6607 44.022C14.7767 44.296 14.8297 44.623 14.8197 45.003H14.3697V44.847C14.3617 44.427 14.2707 44.11 14.0967 43.896C13.9247 43.682 13.6727 43.575 13.3407 43.575C12.9927 43.575 12.7257 43.688 12.5397 43.914C12.3557 44.14 12.2637 44.462 12.2637 44.88C12.2637 45.288 12.3557 45.605 12.5397 45.831C12.7257 46.055 12.9887 46.167 13.3287 46.167C13.5607 46.167 13.7627 46.114 13.9347 46.008C14.1087 45.9 14.2457 45.745 14.3457 45.543L14.7567 45.702C14.6287 45.984 14.4397 46.203 14.1897 46.359C13.9417 46.513 13.6607 46.59 13.3467 46.59ZM12.1077 45.003V44.634H14.5827V45.003H12.1077ZM15.4854 46.5V43.26H15.8814V44.04L15.8034 43.938C15.8394 43.842 15.8864 43.754 15.9444 43.674C16.0024 43.592 16.0654 43.525 16.1334 43.473C16.2174 43.399 16.3154 43.343 16.4274 43.305C16.5394 43.265 16.6524 43.242 16.7664 43.236C16.8804 43.228 16.9844 43.236 17.0784 43.26V43.674C16.9604 43.644 16.8314 43.637 16.6914 43.653C16.5514 43.669 16.4224 43.725 16.3044 43.821C16.1964 43.905 16.1154 44.006 16.0614 44.124C16.0074 44.24 15.9714 44.364 15.9534 44.496C15.9354 44.626 15.9264 44.755 15.9264 44.883V46.5H15.4854ZM18.9599 46.59C18.6439 46.59 18.3699 46.52 18.1379 46.38C17.9079 46.24 17.7289 46.043 17.6009 45.789C17.4729 45.535 17.4089 45.237 17.4089 44.895C17.4089 44.541 17.4719 44.235 17.5979 43.977C17.7239 43.719 17.9009 43.52 18.1289 43.38C18.3589 43.24 18.6299 43.17 18.9419 43.17C19.2619 43.17 19.5349 43.244 19.7609 43.392C19.9869 43.538 20.1579 43.748 20.2739 44.022C20.3899 44.296 20.4429 44.623 20.4329 45.003H19.9829V44.847C19.9749 44.427 19.8839 44.11 19.7099 43.896C19.5379 43.682 19.2859 43.575 18.9539 43.575C18.6059 43.575 18.3389 43.688 18.1529 43.914C17.9689 44.14 17.8769 44.462 17.8769 44.88C17.8769 45.288 17.9689 45.605 18.1529 45.831C18.3389 46.055 18.6019 46.167 18.9419 46.167C19.1739 46.167 19.3759 46.114 19.5479 46.008C19.7219 45.9 19.8589 45.745 19.9589 45.543L20.3699 45.702C20.2419 45.984 20.0529 46.203 19.8029 46.359C19.5549 46.513 19.2739 46.59 18.9599 46.59ZM17.7209 45.003V44.634H20.1959V45.003H17.7209ZM22.3557 46.59C22.0537 46.59 21.7957 46.515 21.5817 46.365C21.3677 46.213 21.2037 46.008 21.0897 45.75C20.9757 45.492 20.9187 45.201 20.9187 44.877C20.9187 44.555 20.9747 44.265 21.0867 44.007C21.2007 43.749 21.3637 43.545 21.5757 43.395C21.7877 43.245 22.0417 43.17 22.3377 43.17C22.6417 43.17 22.8977 43.244 23.1057 43.392C23.3137 43.54 23.4707 43.743 23.5767 44.001C23.6847 44.257 23.7387 44.549 23.7387 44.877C23.7387 45.199 23.6857 45.49 23.5797 45.75C23.4737 46.008 23.3177 46.213 23.1117 46.365C22.9057 46.515 22.6537 46.59 22.3557 46.59ZM22.4007 46.179C22.6307 46.179 22.8207 46.123 22.9707 46.011C23.1207 45.899 23.2327 45.745 23.3067 45.549C23.3807 45.351 23.4177 45.127 23.4177 44.877C23.4177 44.623 23.3807 44.399 23.3067 44.205C23.2327 44.009 23.1207 43.856 22.9707 43.746C22.8227 43.636 22.6357 43.581 22.4097 43.581C22.1777 43.581 21.9857 43.638 21.8337 43.752C21.6817 43.866 21.5687 44.021 21.4947 44.217C21.4227 44.413 21.3867 44.633 21.3867 44.877C21.3867 45.123 21.4237 45.345 21.4977 45.543C21.5737 45.739 21.6867 45.894 21.8367 46.008C21.9867 46.122 22.1747 46.179 22.4007 46.179ZM23.4177 46.5V44.061H23.3697V42.18H23.8137V46.5H23.4177ZM27.3115 46.59C27.0135 46.59 26.7615 46.515 26.5555 46.365C26.3495 46.213 26.1935 46.008 26.0875 45.75C25.9815 45.49 25.9285 45.199 25.9285 44.877C25.9285 44.549 25.9815 44.257 26.0875 44.001C26.1955 43.743 26.3535 43.54 26.5615 43.392C26.7695 43.244 27.0255 43.17 27.3295 43.17C27.6255 43.17 27.8795 43.245 28.0915 43.395C28.3035 43.545 28.4655 43.749 28.5775 44.007C28.6915 44.265 28.7485 44.555 28.7485 44.877C28.7485 45.201 28.6915 45.492 28.5775 45.75C28.4635 46.008 28.2995 46.213 28.0855 46.365C27.8715 46.515 27.6135 46.59 27.3115 46.59ZM25.8535 46.5V42.18H26.2975V44.061H26.2495V46.5H25.8535ZM27.2665 46.179C27.4925 46.179 27.6805 46.122 27.8305 46.008C27.9805 45.894 28.0925 45.739 28.1665 45.543C28.2425 45.345 28.2805 45.123 28.2805 44.877C28.2805 44.633 28.2435 44.413 28.1695 44.217C28.0955 44.021 27.9825 43.866 27.8305 43.752C27.6805 43.638 27.4895 43.581 27.2575 43.581C27.0315 43.581 26.8435 43.636 26.6935 43.746C26.5455 43.856 26.4345 44.009 26.3605 44.205C26.2865 44.399 26.2495 44.623 26.2495 44.877C26.2495 45.127 26.2865 45.351 26.3605 45.549C26.4345 45.745 26.5465 45.899 26.6965 46.011C26.8465 46.123 27.0365 46.179 27.2665 46.179ZM29.7111 47.94L30.3381 46.239L30.3471 46.743L28.9281 43.26H29.3961L30.5601 46.173H30.3681L31.4421 43.26H31.8921L30.1521 47.94H29.7111ZM33.6143 46.5V42.18H36.2153V42.903H34.3373V43.98H35.8553V44.7H34.3373V46.5H33.6143ZM36.815 46.5V42.09H37.538V46.5H36.815ZM39.3426 46.59C39.1086 46.59 38.9106 46.546 38.7486 46.458C38.5866 46.368 38.4636 46.249 38.3796 46.101C38.2976 45.953 38.2566 45.79 38.2566 45.612C38.2566 45.456 38.2826 45.316 38.3346 45.192C38.3866 45.066 38.4666 44.958 38.5746 44.868C38.6826 44.776 38.8226 44.701 38.9946 44.643C39.1246 44.601 39.2766 44.563 39.4506 44.529C39.6266 44.495 39.8166 44.464 40.0206 44.436C40.2266 44.406 40.4416 44.374 40.6656 44.34L40.4076 44.487C40.4096 44.263 40.3596 44.098 40.2576 43.992C40.1556 43.886 39.9836 43.833 39.7416 43.833C39.5956 43.833 39.4546 43.867 39.3186 43.935C39.1826 44.003 39.0876 44.12 39.0336 44.286L38.3736 44.079C38.4536 43.805 38.6056 43.585 38.8296 43.419C39.0556 43.253 39.3596 43.17 39.7416 43.17C40.0296 43.17 40.2826 43.217 40.5006 43.311C40.7206 43.405 40.8836 43.559 40.9896 43.773C41.0476 43.887 41.0826 44.004 41.0946 44.124C41.1066 44.242 41.1126 44.371 41.1126 44.511V46.5H40.4796V45.798L40.5846 45.912C40.4386 46.146 40.2676 46.318 40.0716 46.428C39.8776 46.536 39.6346 46.59 39.3426 46.59ZM39.4866 46.014C39.6506 46.014 39.7906 45.985 39.9066 45.927C40.0226 45.869 40.1146 45.798 40.1826 45.714C40.2526 45.63 40.2996 45.551 40.3236 45.477C40.3616 45.385 40.3826 45.28 40.3866 45.162C40.3926 45.042 40.3956 44.945 40.3956 44.871L40.6176 44.937C40.3996 44.971 40.2126 45.001 40.0566 45.027C39.9006 45.053 39.7666 45.078 39.6546 45.102C39.5426 45.124 39.4436 45.149 39.3576 45.177C39.2736 45.207 39.2026 45.242 39.1446 45.282C39.0866 45.322 39.0416 45.368 39.0096 45.42C38.9796 45.472 38.9646 45.533 38.9646 45.603C38.9646 45.683 38.9846 45.754 39.0246 45.816C39.0646 45.876 39.1226 45.924 39.1986 45.96C39.2766 45.996 39.3726 46.014 39.4866 46.014ZM43.1446 46.59C42.7446 46.59 42.4196 46.5 42.1696 46.32C41.9196 46.14 41.7676 45.887 41.7136 45.561L42.4516 45.447C42.4896 45.607 42.5736 45.733 42.7036 45.825C42.8336 45.917 42.9976 45.963 43.1956 45.963C43.3696 45.963 43.5036 45.929 43.5976 45.861C43.6936 45.791 43.7416 45.696 43.7416 45.576C43.7416 45.502 43.7236 45.443 43.6876 45.399C43.6536 45.353 43.5776 45.309 43.4596 45.267C43.3416 45.225 43.1606 45.172 42.9166 45.108C42.6446 45.036 42.4286 44.959 42.2686 44.877C42.1086 44.793 41.9936 44.694 41.9236 44.58C41.8536 44.466 41.8186 44.328 41.8186 44.166C41.8186 43.964 41.8716 43.788 41.9776 43.638C42.0836 43.488 42.2316 43.373 42.4216 43.293C42.6116 43.211 42.8356 43.17 43.0936 43.17C43.3456 43.17 43.5686 43.209 43.7626 43.287C43.9586 43.365 44.1166 43.476 44.2366 43.62C44.3566 43.764 44.4306 43.933 44.4586 44.127L43.7206 44.259C43.7026 44.121 43.6396 44.012 43.5316 43.932C43.4256 43.852 43.2836 43.807 43.1056 43.797C42.9356 43.787 42.7986 43.813 42.6946 43.875C42.5906 43.935 42.5386 44.02 42.5386 44.13C42.5386 44.192 42.5596 44.245 42.6016 44.289C42.6436 44.333 42.7276 44.377 42.8536 44.421C42.9816 44.465 43.1716 44.519 43.4236 44.583C43.6816 44.649 43.8876 44.725 44.0416 44.811C44.1976 44.895 44.3096 44.996 44.3776 45.114C44.4476 45.232 44.4826 45.375 44.4826 45.543C44.4826 45.869 44.3636 46.125 44.1256 46.311C43.8896 46.497 43.5626 46.59 43.1446 46.59ZM47.3807 46.5V44.94C47.3807 44.838 47.3737 44.725 47.3597 44.601C47.3457 44.477 47.3127 44.358 47.2607 44.244C47.2107 44.128 47.1347 44.033 47.0327 43.959C46.9327 43.885 46.7967 43.848 46.6247 43.848C46.5327 43.848 46.4417 43.863 46.3517 43.893C46.2617 43.923 46.1797 43.975 46.1057 44.049C46.0337 44.121 45.9757 44.221 45.9317 44.349C45.8877 44.475 45.8657 44.637 45.8657 44.835L45.4367 44.652C45.4367 44.376 45.4897 44.126 45.5957 43.902C45.7037 43.678 45.8617 43.5 46.0697 43.368C46.2777 43.234 46.5337 43.167 46.8377 43.167C47.0777 43.167 47.2757 43.207 47.4317 43.287C47.5877 43.367 47.7117 43.469 47.8037 43.593C47.8957 43.717 47.9637 43.849 48.0077 43.989C48.0517 44.129 48.0797 44.262 48.0917 44.388C48.1057 44.512 48.1127 44.613 48.1127 44.691V46.5H47.3807ZM45.1337 46.5V42.18H45.7787V44.454H45.8657V46.5H45.1337ZM49.3216 47.94L49.9456 46.227L49.9576 46.731L48.5446 43.26H49.2976L50.2996 45.828H50.1076L51.0826 43.26H51.8056L49.9996 47.94H49.3216ZM55.2812 46.59C54.8492 46.59 54.4792 46.496 54.1712 46.308C53.8632 46.118 53.6262 45.854 53.4602 45.516C53.2962 45.178 53.2142 44.786 53.2142 44.34C53.2142 43.894 53.2962 43.502 53.4602 43.164C53.6262 42.826 53.8632 42.563 54.1712 42.375C54.4792 42.185 54.8492 42.09 55.2812 42.09C55.7792 42.09 56.1942 42.215 56.5262 42.465C56.8582 42.713 57.0912 43.048 57.2252 43.47L56.4962 43.671C56.4122 43.389 56.2692 43.169 56.0672 43.011C55.8652 42.851 55.6032 42.771 55.2812 42.771C54.9912 42.771 54.7492 42.836 54.5552 42.966C54.3632 43.096 54.2182 43.279 54.1202 43.515C54.0242 43.749 53.9752 44.024 53.9732 44.34C53.9732 44.656 54.0212 44.932 54.1172 45.168C54.2152 45.402 54.3612 45.584 54.5552 45.714C54.7492 45.844 54.9912 45.909 55.2812 45.909C55.6032 45.909 55.8652 45.829 56.0672 45.669C56.2692 45.509 56.4122 45.289 56.4962 45.009L57.2252 45.21C57.0912 45.632 56.8582 45.968 56.5262 46.218C56.1942 46.466 55.7792 46.59 55.2812 46.59ZM58.7899 46.59C58.5559 46.59 58.3579 46.546 58.1959 46.458C58.0339 46.368 57.9109 46.249 57.8269 46.101C57.7449 45.953 57.7039 45.79 57.7039 45.612C57.7039 45.456 57.7299 45.316 57.7819 45.192C57.8339 45.066 57.9139 44.958 58.0219 44.868C58.1299 44.776 58.2699 44.701 58.4419 44.643C58.5719 44.601 58.7239 44.563 58.8979 44.529C59.0739 44.495 59.2639 44.464 59.4679 44.436C59.6739 44.406 59.8889 44.374 60.1129 44.34L59.8549 44.487C59.8569 44.263 59.8069 44.098 59.7049 43.992C59.6029 43.886 59.4309 43.833 59.1889 43.833C59.0429 43.833 58.9019 43.867 58.7659 43.935C58.6299 44.003 58.5349 44.12 58.4809 44.286L57.8209 44.079C57.9009 43.805 58.0529 43.585 58.2769 43.419C58.5029 43.253 58.8069 43.17 59.1889 43.17C59.4769 43.17 59.7299 43.217 59.9479 43.311C60.1679 43.405 60.3309 43.559 60.4369 43.773C60.4949 43.887 60.5299 44.004 60.5419 44.124C60.5539 44.242 60.5599 44.371 60.5599 44.511V46.5H59.9269V45.798L60.0319 45.912C59.8859 46.146 59.7149 46.318 59.5189 46.428C59.3249 46.536 59.0819 46.59 58.7899 46.59ZM58.9339 46.014C59.0979 46.014 59.2379 45.985 59.3539 45.927C59.4699 45.869 59.5619 45.798 59.6299 45.714C59.6999 45.63 59.7469 45.551 59.7709 45.477C59.8089 45.385 59.8299 45.28 59.8339 45.162C59.8399 45.042 59.8429 44.945 59.8429 44.871L60.0649 44.937C59.8469 44.971 59.6599 45.001 59.5039 45.027C59.3479 45.053 59.2139 45.078 59.1019 45.102C58.9899 45.124 58.8909 45.149 58.8049 45.177C58.7209 45.207 58.6499 45.242 58.5919 45.282C58.5339 45.322 58.4889 45.368 58.4569 45.42C58.4269 45.472 58.4119 45.533 58.4119 45.603C58.4119 45.683 58.4319 45.754 58.4719 45.816C58.5119 45.876 58.5699 45.924 58.6459 45.96C58.7239 45.996 58.8199 46.014 58.9339 46.014ZM62.7479 46.59C62.4139 46.59 62.1289 46.516 61.8929 46.368C61.6569 46.218 61.4759 46.014 61.3499 45.756C61.2259 45.498 61.1629 45.206 61.1609 44.88C61.1629 44.548 61.2279 44.254 61.3559 43.998C61.4859 43.74 61.6699 43.538 61.9079 43.392C62.1459 43.244 62.4289 43.17 62.7569 43.17C63.1249 43.17 63.4359 43.263 63.6899 43.449C63.9459 43.633 64.1129 43.885 64.1909 44.205L63.4709 44.4C63.4149 44.226 63.3219 44.091 63.1919 43.995C63.0619 43.897 62.9139 43.848 62.7479 43.848C62.5599 43.848 62.4049 43.893 62.2829 43.983C62.1609 44.071 62.0709 44.193 62.0129 44.349C61.9549 44.505 61.9259 44.682 61.9259 44.88C61.9259 45.188 61.9949 45.437 62.1329 45.627C62.2709 45.817 62.4759 45.912 62.7479 45.912C62.9399 45.912 63.0909 45.868 63.2009 45.78C63.3129 45.692 63.3969 45.565 63.4529 45.399L64.1909 45.564C64.0909 45.894 63.9159 46.148 63.6659 46.326C63.4159 46.502 63.1099 46.59 62.7479 46.59ZM66.6911 46.5C66.4771 46.54 66.2671 46.557 66.0611 46.551C65.8571 46.547 65.6741 46.51 65.5121 46.44C65.3501 46.368 65.2271 46.255 65.1431 46.101C65.0691 45.961 65.0301 45.818 65.0261 45.672C65.0221 45.526 65.0201 45.361 65.0201 45.177V42.36H65.7401V45.135C65.7401 45.265 65.7411 45.379 65.7431 45.477C65.7471 45.575 65.7681 45.655 65.8061 45.717C65.8781 45.837 65.9931 45.904 66.1511 45.918C66.3091 45.932 66.4891 45.924 66.6911 45.894V46.5ZM64.4321 43.827V43.26H66.6911V43.827H64.4321ZM68.6028 46.593C68.3628 46.593 68.1648 46.553 68.0088 46.473C67.8528 46.393 67.7288 46.291 67.6368 46.167C67.5448 46.043 67.4768 45.911 67.4328 45.771C67.3888 45.631 67.3598 45.499 67.3458 45.375C67.3338 45.249 67.3278 45.147 67.3278 45.069V43.26H68.0598V44.82C68.0598 44.92 68.0668 45.033 68.0808 45.159C68.0948 45.283 68.1268 45.403 68.1768 45.519C68.2288 45.633 68.3048 45.727 68.4048 45.801C68.5068 45.875 68.6438 45.912 68.8158 45.912C68.9078 45.912 68.9988 45.897 69.0888 45.867C69.1788 45.837 69.2598 45.786 69.3318 45.714C69.4058 45.64 69.4648 45.539 69.5088 45.411C69.5528 45.283 69.5748 45.121 69.5748 44.925L70.0038 45.108C70.0038 45.384 69.9498 45.634 69.8418 45.858C69.7358 46.082 69.5788 46.261 69.3708 46.395C69.1628 46.527 68.9068 46.593 68.6028 46.593ZM69.6618 46.5V45.495H69.5748V43.26H70.3008V46.5H69.6618ZM72.3946 46.59C71.9946 46.59 71.6696 46.5 71.4196 46.32C71.1696 46.14 71.0176 45.887 70.9636 45.561L71.7016 45.447C71.7396 45.607 71.8236 45.733 71.9536 45.825C72.0836 45.917 72.2476 45.963 72.4456 45.963C72.6196 45.963 72.7536 45.929 72.8476 45.861C72.9436 45.791 72.9916 45.696 72.9916 45.576C72.9916 45.502 72.9736 45.443 72.9376 45.399C72.9036 45.353 72.8276 45.309 72.7096 45.267C72.5916 45.225 72.4106 45.172 72.1666 45.108C71.8946 45.036 71.6786 44.959 71.5186 44.877C71.3586 44.793 71.2436 44.694 71.1736 44.58C71.1036 44.466 71.0686 44.328 71.0686 44.166C71.0686 43.964 71.1216 43.788 71.2276 43.638C71.3336 43.488 71.4816 43.373 71.6716 43.293C71.8616 43.211 72.0856 43.17 72.3436 43.17C72.5956 43.17 72.8186 43.209 73.0126 43.287C73.2086 43.365 73.3666 43.476 73.4866 43.62C73.6066 43.764 73.6806 43.933 73.7086 44.127L72.9706 44.259C72.9526 44.121 72.8896 44.012 72.7816 43.932C72.6756 43.852 72.5336 43.807 72.3556 43.797C72.1856 43.787 72.0486 43.813 71.9446 43.875C71.8406 43.935 71.7886 44.02 71.7886 44.13C71.7886 44.192 71.8096 44.245 71.8516 44.289C71.8936 44.333 71.9776 44.377 72.1036 44.421C72.2316 44.465 72.4216 44.519 72.6736 44.583C72.9316 44.649 73.1376 44.725 73.2916 44.811C73.4476 44.895 73.5596 44.996 73.6276 45.114C73.6976 45.232 73.7326 45.375 73.7326 45.543C73.7326 45.869 73.6136 46.125 73.3756 46.311C73.1396 46.497 72.8126 46.59 72.3946 46.59Z" fill="white"/>
<defs>
<clipPath id="clip0_174_52">
<rect width="68" height="35" fill="white" transform="translate(3)"/>
</clipPath>
</defs>
</svg>
